<svg width="1200" height="1400" viewBox="0 0 1200 1400" fill="none" xmlns="http://www.w3.org/2000/svg" role="img" aria-label="Ilustración de blazer estructurado color terracota">
  <rect width="1200" height="1400" fill="#F5EFE5"/>
  <path d="M342 1198V612L486 418H714L858 612V1198H342Z" fill="#C2412D"/>
  <path d="M486 418L558 640L600 580L642 640L714 418" fill="#9E3525"/>
  <path d="M486 418L556 520H644L714 418" stroke="#7C271B" stroke-width="8"/>
  <rect x="470" y="766" width="90" height="18" rx="9" fill="#F5EFE5"/>
  <rect x="640" y="766" width="90" height="18" rx="9" fill="#F5EFE5"/>
  <rect x="580" y="640" width="40" height="330" rx="20" fill="#F5EFE5"/>
  <circle cx="600" cy="716" r="8" fill="#B48B46"/>
  <circle cx="600" cy="768" r="8" fill="#B48B46"/>
  <circle cx="600" cy="820" r="8" fill="#B48B46"/>
  <path d="M280 1280H920" stroke="#111827" stroke-opacity="0.2" stroke-width="8" stroke-linecap="round"/>
  <text x="600" y="1328" text-anchor="middle" fill="#111827" fill-opacity="0.7" font-size="42" font-family="Georgia, serif">Maison Atelier</text>
</svg>
